<svg fill="none" height="136" viewBox="0 0 402 136" width="402" xmlns="http://www.w3.org/2000/svg"><rect fill="#fff" height="136" rx="24" width="401.956"/><path d="m96.3038 56.5747c-3.4378-2.0778-4.9489-7.3666-3.4378-10.9178 1.2089-2.8333 5.5533-12.8444 5.5533-12.8444h-15.0733l-33.5467 67.2065s9.4067-6.3465 23.3089-.2643c4.3444 1.8893 8.9156 3.7023 14.0533 3.4003 12.1267-.718 21.7975-10.087 22.9315-22.1758.944-10.6911-5.1-19.1534-13.7892-24.4045zm4.0042 23.6111c-.6798 6.9134-6.2709 12.4667-13.1465 13.1467-9.3311.9067-17.0755-6.8378-16.1689-16.1689.68-6.9133 6.2712-12.4667 13.1467-13.1467 9.3311-.9444 17.1137 6.8378 16.1687 16.1689z" fill="#0e0d07"/><path d="m92.6393 79.3922c-.34 3.2866-2.9845 5.9311-6.2711 6.2333-4.42.4533-8.1222-3.2489-7.6689-7.6689.34-3.2866 2.9844-5.9311 6.2711-6.2711 4.42-.4155 8.0844 3.2489 7.6689 7.7067z" fill="#ff6d00"/><g fill="#0e0d07"><path d="m137.39 88.7563v1.7756h-7.556v-44.5778h7.556v15.1111c0 .68.793 1.02 1.322.5667 1.889-1.7 4.647-2.7956 7.858-2.7956 9.218 0 14.733 6.5734 14.733 16.0934s-5.515 16.0933-14.846 16.0933c-3.023 0-5.818-1.0578-7.745-2.8711-.529-.4534-1.322-.0756-1.322.6044zm16.32-13.8266c0-5.7423-3.022-9.52-7.556-9.52-4.571 0-7.555 3.7777-7.555 9.52 0 5.7422 3.022 9.52 7.555 9.52 4.572.0377 7.556-3.74 7.556-9.52z"/><path d="m178.87 46.332v8.1223h-7.82v-8.1223zm-7.707 12.9956h7.631v31.2044h-7.631z"/><path d="m204.181 65.7116c-4.836 0-6.762 4.1555-6.762 10.0867v14.7333h-7.631v-31.2045h7.631v1.3978c0 .5289.642.7556.982.34 1.549-2.0022 3.74-1.7 7.027-1.7h3.664v6.3845h-4.911z"/><path d="m214.268 74.9297c0-9.52 5.515-16.0934 14.733-16.0934 3.249 0 5.969 1.0956 7.858 2.7956.491.4533 1.322.1133 1.322-.5667v-15.1111h7.555v44.5778h-7.555v-1.7756c0-.68-.793-1.02-1.285-.5666-1.926 1.8133-4.722 2.8711-7.744 2.8711-9.369-.0378-14.884-6.5734-14.884-16.1311zm22.704 0c0-5.7423-3.022-9.52-7.556-9.52-4.571 0-7.555 3.7777-7.555 9.52 0 5.7422 3.022 9.52 7.555 9.52 4.534.0377 7.556-3.74 7.556-9.52z"/><path d="m284.27 80.1426c-1.171 6.6111-6.989 10.9178-14.696 10.9178-10.237 0-15.904-8.0467-15.904-16.2445 0-8.2355 5.062-15.98 15.3-15.98 10.464 0 15.187 7.6311 15.187 15.0356 0 1.0578-.076 1.9644-.114 2.6067h-22.175c-.491 0-.869.4533-.756.9444.831 4.4956 3.929 7.2911 8.462 7.2911 3.891 0 6.46-1.6244 7.254-4.5711zm-22.138-8.6889h13.525c.491 0 .868-.4533.755-.9067-.642-3.4755-3.287-6.0066-7.442-6.0066-3.967 0-6.611 1.9266-7.593 5.9689-.152.4911.226.9444.755.9444z"/><path d="m307.806 89.0583-4.836 14.1287h-7.253l4.042-11.5599c.227-.68.227-1.4355 0-2.1533l-10.993-30.1467h7.744l7.253 21.42 7.178-21.42h7.82z"/><path d="m352.157 80.1426c-1.171 6.6111-6.989 10.9178-14.696 10.9178-10.238 0-15.904-8.0467-15.904-16.2445 0-8.2355 5.062-15.98 15.3-15.98 10.464 0 15.186 7.6311 15.186 15.0356 0 1.0578-.075 1.9644-.113 2.6067h-22.138c-.491 0-.869.4533-.755.9444.831 4.4956 3.929 7.2911 8.462 7.2911 3.891 0 6.422-1.6244 7.253-4.5711zm-22.138-8.6889h13.524c.491 0 .869-.4533.756-.9067-.642-3.4755-3.287-6.0066-7.442-6.0066-3.967 0-6.611 1.9266-7.594 5.9689-.113.4533.227.9444.756.9444z"/></g></svg>