<svg fill="none" height="136" viewBox="0 0 402 136" width="402" xmlns="http://www.w3.org/2000/svg"><rect fill="#fff" height="136" rx="24" width="401.956"/><path d="m86.3922 73.4483c-.9745.5955-2.1114.7038-2.9777.2165-1.0827-.6496-1.7324-2.1114-1.7324-4.1145v-6.1178c0-2.9235-1.1369-5.0349-3.0859-5.5763-3.3025-.9745-5.7929 3.0859-6.7133 4.6018l-5.847 9.3661v-11.5316c-.0542-2.6529-.9204-4.2229-2.5446-4.7101-1.0827-.3249-2.7069-.1624-4.2769 2.2197l-13.0476 20.8977c-1.7324-3.3025-2.6528-6.984-2.6528-10.7196 0-12.6144 10.124-22.8467 22.5219-22.8467 12.3978 0 22.5219 10.2323 22.5219 22.8467v.0542.0541c.1082 2.4363-.6497 4.3853-2.1656 5.3598zm7.1464-5.4681v-.0541-.0542c-.0542-15.3213-12.3979-27.8275-27.5027-27.8275-15.159 0-27.5027 12.5062-27.5027 27.9358 0 15.3755 12.3437 27.9358 27.5027 27.9358 6.9839 0 13.5889-2.6528 18.678-7.4712 1.0286-.9745 1.0828-2.5445.1083-3.5732-.9204-1.0286-2.4904-1.0828-3.5191-.1624 0 0 0 0-.0541.0542-4.1146 3.898-9.6368 6.1177-15.3214 6.1177-6.6591 0-12.6144-2.9235-16.729-7.5795l11.7482-18.8404v8.7164c0 4.1687 1.6242 5.5222 2.9777 5.9011 1.3534.379 3.4107.1083 5.6304-3.4107l6.4426-10.4489c.2165-.3248.379-.6496.5955-.8662v5.3056c0 3.8981 1.57 7.0381 4.277 8.554 2.4363 1.4076 5.5222 1.2452 8.0667-.3248 3.1401-2.0573 4.8184-5.6305 4.6019-9.9075zm38.3304-9.5285c.65.379 1.245 1.2994 1.245 2.1115 0 1.2993-1.083 2.3821-2.328 2.3821-.325 0-.595-.1083-.866-.1624-1.462-1.0828-3.302-1.7866-5.251-1.7866-4.602 0-7.742 3.7356-7.742 8.3915 0 4.656 3.194 8.3375 7.742 8.3375 2.273 0 4.331-.9204 5.847-2.3822.379-.2706.866-.4331 1.353-.4331 1.245 0 2.22.9745 2.22 2.2197 0 .8121-.487 1.5159-1.083 1.8949-2.22 1.8949-5.197 3.1401-8.283 3.1401-7.038 0-12.777-5.7929-12.777-12.9393 0-7.1463 5.739-12.9392 12.777-12.9392 2.598-.0542 5.089.7579 7.146 2.1655zm12.885 5.4139c4.819 0 8.825 4.0605 8.825 9.0954 0 4.9808-4.061 9.2578-8.825 9.2578-5.035 0-9.203-4.2228-9.203-9.2578 0-5.0349 4.168-9.0954 9.203-9.0954zm-.054 13.8597c2.111 0 3.898-2.0032 3.898-4.7101 0-2.707-1.787-4.4394-3.898-4.4394-2.274 0-4.169 1.6783-4.169 4.4394 0 2.6528 1.895 4.7101 4.169 4.7101zm11.911 1.6783v-12.7769c0-1.4076 1.082-2.5445 2.49-2.5445 1.354 0 2.49 1.1369 2.49 2.5445v12.7769c0 1.4076-1.136 2.5445-2.49 2.5445-1.353 0-2.49-1.191-2.49-2.5445zm-.379-20.1398c0-1.6783 1.299-2.9776 2.869-2.9776 1.624 0 2.924 1.3534 2.924 2.9776s-1.3 2.9235-2.924 2.9235c-1.624-.0541-2.869-1.3534-2.869-2.9235zm14.888 13.21v6.9298c0 1.4076-1.137 2.5445-2.49 2.5445-1.354 0-2.491-1.1369-2.491-2.5445v-13.3724c0-1.0828.866-1.949 1.949-1.949s1.895.9204 1.895 1.949c2.003-1.8949 3.79-2.1656 5.468-2.1656 4.981 0 7.201 3.7357 7.201 8.0126v7.5254c0 1.4076-1.137 2.5445-2.491 2.5445-1.353 0-2.49-1.1369-2.49-2.5445v-6.9298c0-2.1656-.271-4.0063-3.411-4.0063-2.22 0-3.14 1.8407-3.14 4.0063zm27.665 2.6528c-.595 0-.974-.2707-1.299-.6497l-5.793-6.2801v11.2068c0 1.4076-1.137 2.5445-2.491 2.5445-1.353 0-2.49-1.1369-2.49-2.5445v-22.1971c.162-.3789.541-.6496.92-.6496.433 0 .812.3789 1.083.6496l9.258 10.3947c.271.3249.595.4873.812.4873.162 0 .541-.1624.812-.4873l9.258-10.3947c.271-.2707.595-.6496 1.083-.6496.433 0 .812.2707.92.6496v22.1971c0 1.4076-1.083 2.5445-2.49 2.5445-1.354 0-2.491-1.1369-2.491-2.5445v-11.2068l-5.793 6.2801c-.433.379-.812.6497-1.299.6497zm23.93 2.5987c2.219 0 4.114-2.0032 4.114-4.7101 0-2.707-1.949-4.4936-4.114-4.4936-2.166 0-3.953 1.8407-3.953 4.4936 0 2.5986 1.733 4.7101 3.953 4.7101zm5.305 2.2738-.108-.5955c-.975 1.8949-4.061 2.7611-6.01 2.7611-4.656 0-8.12-4.2229-8.12-9.2578 0-4.9808 3.519-9.0954 8.391-9.0954.812 0 3.627.2166 5.793 2.7611l.108-.5955c0-1.0828.812-1.949 1.895-1.949s1.949.9203 1.949 1.949v13.9679c0 1.0828-.866 1.949-1.949 1.949-1.137.0541-1.949-.8662-1.949-1.8949zm17.595-11.5316h-.541c-3.14.1624-3.736 1.949-3.736 4.0063v6.9298c0 1.4076-1.137 2.5445-2.49 2.5445s-2.49-1.1369-2.49-2.5445v-13.3724c0-1.0828.866-1.949 1.949-1.949 1.082 0 1.894.9204 1.894 1.949 1.841-1.7324 3.357-2.1114 4.873-2.1656h.487c1.191 0 2.274 1.0287 2.274 2.328.054 1.1911-1.029 2.2739-2.22 2.2739zm19.22 9.745c.216.379.379.758.379 1.1911 0 1.2993-1.191 2.4904-2.491 2.4904-.866 0-1.624-.6497-2.219-1.4076l-5.739-6.6592v5.5222c0 1.4077-1.137 2.5446-2.491 2.5446-1.353 0-2.49-1.1369-2.49-2.5446v-20.3021c0-1.4076 1.083-2.5446 2.49-2.5446 1.408 0 2.491 1.137 2.491 2.5446v12.6685l5.739-6.3342c.595-.6497 1.299-1.3535 2.165-1.3535 1.245 0 2.382 1.1369 2.382 2.4362 0 .379-.108.8121-.325 1.1369l-4.547 4.9809zm9.745-9.6909c-1.354 0-3.573.7038-3.573 2.8153h7.2c-.054-2.1115-2.328-2.8153-3.627-2.8153zm6.497 6.0095h-10.07c0 2.9776 2.869 3.4649 4.114 3.4649.921 0 2.22-.1625 3.249-.6497.324-.2166.812-.379 1.299-.379 1.083 0 2.003.9204 2.003 2.0573 0 .758-.487 1.4076-1.083 1.7866-1.516 1.1369-3.519 1.4076-5.414 1.4076-5.035 0-9.203-2.7069-9.203-9.0412 0-4.9808 2.544-9.312 8.5-9.312 4.818 0 8.445 3.1401 8.554 8.7165 0 1.0286-.867 1.949-1.949 1.949zm13.859 7.6336h-1.353c-3.79 0-6.01-1.6783-6.01-7.5795v-6.1177h-1.299c-1.191 0-2.22-1.0828-2.22-2.2739 0-1.2993 1.083-2.328 2.22-2.328h1.299v-4.71c0-1.4077 1.083-2.5446 2.491-2.5446 1.353 0 2.49 1.1369 2.49 2.5446v4.71h2.057c1.191 0 2.22 1.0287 2.22 2.328 0 1.1911-1.083 2.2739-2.22 2.2739h-2.057v5.1432c0 3.4108.162 4.1146 1.678 4.1146h.704c1.191 0 2.22.9745 2.22 2.2197 0 1.191-1.029 2.2197-2.22 2.2197zm24.092-23.713c.65.379 1.245 1.2994 1.245 2.1115 0 1.2993-1.083 2.3821-2.328 2.3821-.325 0-.595-.1083-.866-.1624-1.462-1.0828-3.302-1.7866-5.251-1.7866-4.602 0-7.742 3.7356-7.742 8.3915 0 4.656 3.194 8.3375 7.742 8.3375 2.273 0 4.331-.9204 5.847-2.3822.379-.2706.866-.4331 1.353-.4331 1.245 0 2.22.9745 2.22 2.2197 0 .8121-.487 1.5159-1.083 1.8949-2.22 1.8949-5.197 3.1401-8.283 3.1401-7.038 0-12.777-5.7929-12.777-12.9393 0-7.1463 5.739-12.9392 12.777-12.9392 2.598-.0542 5.143.7579 7.146 2.1655zm12.614 19.2736c2.22 0 4.115-2.0032 4.115-4.7101 0-2.707-1.949-4.4936-4.115-4.4936-2.219 0-3.952 1.8407-3.952 4.4936 0 2.5986 1.787 4.7101 3.952 4.7101zm5.306 2.2738-.108-.5955c-.975 1.8949-4.061 2.7611-6.01 2.7611-4.656 0-8.121-4.2229-8.121-9.2578 0-4.9808 3.52-9.0954 8.392-9.0954.812 0 3.627.2166 5.793 2.7611l.108-.5955c0-1.0828.812-1.949 1.895-1.949s1.949.9203 1.949 1.949v13.9679c0 1.0828-.866 1.949-1.949 1.949-1.137.0541-1.949-.8662-1.949-1.8949zm17.487-2.2738c2.22 0 3.952-2.1115 3.952-4.7101 0-2.707-1.786-4.4936-3.952-4.4936-2.22 0-4.115 1.7866-4.115 4.4936 0 2.7069 1.895 4.7101 4.115 4.7101zm-4.115 2.9776v6.3343c0 1.4076-1.136 2.5445-2.49 2.5445-1.353 0-2.49-1.1369-2.49-2.5445v-21.006c0-1.0828.866-1.949 1.949-1.949 1.082 0 1.895.9204 1.895 2.1656 1.84-1.8949 4.114-2.3822 5.847-2.3822 4.818 0 8.391 4.0605 8.391 9.0954 0 4.9808-3.411 9.2578-8.121 9.2578-1.462-.0541-3.627-.4872-4.981-1.5159z" fill="#0e0d07"/></svg>