<svg fill="none" height="136" viewBox="0 0 402 136" width="402" xmlns="http://www.w3.org/2000/svg"><rect fill="#fff" height="136" rx="24" width="401.956"/><path d="m174.143 59.3415c-.841-3.2831-2.964-5.6861-7.127-5.6861-6.13 0-8.693 5.4057-8.693 10.8891s2.563 10.8934 8.693 10.8934c4.444 0 6.903-3.3219 7.287-7.4852h4.888c-.401 6.8467-5.246 11.5708-12.175 11.5708-8.572 0-13.698-6.8079-13.698-14.979s5.126-14.9747 13.698-14.9747c6.445.0389 11.532 3.6024 12.132 9.7717zm8.012 9.1289c0-6.3246 3.805-10.8934 10.453-10.8934s10.449 4.5688 10.449 10.8934c0 6.3247-3.805 10.9323-10.449 10.9323s-10.453-4.5645-10.453-10.9323zm16.338 0c0-3.5635-1.804-7.2867-5.885-7.2867s-5.889 3.7232-5.889 7.2867c0 3.5636 1.803 7.3342 5.889 7.3342s5.885-3.7275 5.885-7.3342zm8.49-18.2189h4.564v4.3142h-4.564zm0 7.8864h4.564v20.7082h-4.564zm9.534 0h4.315v3.0458l.082.0777c.655-1.1267 1.596-2.0605 2.728-2.7074 1.131-.6469 2.414-.9838 3.717-.977 4.487 0 7.334 2.403 7.334 7.0495v14.2369h-4.56v-13.0333c-.082-3.2443-1.363-4.6464-4.047-4.6464-3.041 0-5.004 2.403-5.004 5.4446v12.2135h-4.565zm48.579 20.7039h-3.206l-.759-3.3608c-2.684 3.0416-5.13 4.0425-8.629 4.0425-8.572 0-13.697-6.8079-13.697-14.979s5.125-14.9747 13.697-14.9747c6.247 0 11.493 3.322 12.253 9.7717h-4.867c-.483-3.7663-3.766-5.6861-7.368-5.6861-6.127 0-8.694 5.4057-8.694 10.8891s2.567 10.8934 8.694 10.8934c5.125.082 7.929-3.02 8.007-7.8476h-7.606v-3.8051h12.175zm8.369-9.1677c0 3.2443 1.76 6.1262 5.566 6.1262 2.644 0 4.245-1.1605 5.047-3.4514h4.314c-1.001 4.5256-4.845 7.0451-9.37 7.0451-6.471 0-10.13-4.5256-10.13-10.8934 0-5.8846 3.844-10.9322 10.009-10.9322 6.527 0 10.535 5.8889 9.772 12.0798zm10.652-3.02c-.16-2.8819-2.123-5.4833-5.207-5.4833-3.163 0-5.324 2.403-5.445 5.4833zm22.028-1.5876c-.362-2.5238-2.204-3.8828-4.745-3.8828-2.36 0-5.686 1.2425-5.686 7.5283 0 3.4514 1.523 7.0883 5.487 7.0883 2.645 0 4.487-1.7602 4.927-4.7241h4.565c-.863 5.3626-4.164 8.3265-9.492 8.3265-6.471 0-10.052-4.6033-10.052-10.6907 0-6.247 3.404-11.135 10.212-11.135 4.806 0 8.892 2.403 9.332 7.4895zm8.409-14.815h4.569v16.256l8.27-8.3696h5.608l-7.929 7.6103 8.693 13.0936h-5.596l-6.324-10.0521-2.722 2.6446v7.4075h-4.569zm20.428 18.2189c0-6.3246 3.805-10.8934 10.449-10.8934s10.436 4.5688 10.436 10.8934c0 6.3247-3.805 10.9323-10.454 10.9323-6.648 0-10.431-4.5645-10.431-10.9323zm16.338 0c0-3.5635-1.804-7.2867-5.889-7.2867-4.086 0-5.885 3.7232-5.885 7.2867 0 3.5636 1.803 7.3342 5.885 7.3342 4.081 0 5.889-3.7275 5.889-7.3342z" fill="#0e0d07"/><path d="m127.981 67.9657c.036 8.0981-2.331 16.025-6.8 22.7782-4.469 6.7533-10.84 12.0301-18.308 15.1621-7.4682 3.132-15.6972 3.98-23.6468 2.435-7.9495-1.544-15.2626-5.411-21.0145-11.1118-5.7519-5.7006-9.6842-12.9787-11.2997-20.9141-1.6156-7.9354-.8418-16.1717 2.2235-23.6674 3.0652-7.4956 8.2843-13.914 14.9973-18.4436 6.713-4.5295 14.6184-6.9667 22.7165-7.0035 10.86-.0482 21.2947 4.2195 29.0077 11.8644 7.714 7.6448 12.075 18.0406 12.124 28.9007z" fill="#8dc63f"/><path d="m124.896 67.9741c.034 7.4882-2.153 14.8184-6.285 21.0635-4.132 6.2452-10.023 11.1244-16.928 14.0224-6.9051 2.897-14.5142 3.681-21.8652 2.254-7.351-1.428-14.1136-5.003-19.4327-10.2738s-8.9558-12.0005-10.4502-19.3382c-1.4943-7.3377-.7793-14.9537 2.0547-21.885 2.8341-6.9312 7.6599-12.8665 13.8671-17.0551 6.2072-4.1887 13.5171-6.4426 21.0053-6.4768 4.9721-.0228 9.8999.9341 14.502 2.8159 4.603 1.8817 8.789 4.6516 12.321 8.1513 3.532 3.4998 6.34 7.6609 8.263 12.2459 1.924 4.5849 2.926 9.5038 2.948 14.4759z" fill="#f9e988"/><path d="m87.7251 32.7402c2.407-.4296 4.8711-.4296 7.2781 0 2.4301.3851 4.779 1.1724 6.9498 2.3297 2.158 1.1864 4.026 2.7956 5.881 4.3142s3.706 3.0545 5.466 4.7457c1.795 1.6628 3.361 3.5559 4.659 5.63 1.338 2.0601 2.434 4.2678 3.266 6.5792 1.619 4.6168 2.079 9.5602 1.342 14.3966h-.242c-.71-4.6204-1.899-9.1545-3.546-13.5294-.79-2.1636-1.719-4.2734-2.783-6.316-1.118-2.0368-2.348-4.01-3.684-5.9105-1.363-1.9236-3.034-3.61-4.944-4.9916-1.92-1.3676-4.129-2.2563-6.269-3.0976-2.1397-.8413-4.2795-1.6782-6.5013-2.321-2.2219-.6429-4.4955-1.1217-6.864-1.5877z" fill="#fff"/><path d="m106.233 54.6001c-2.748-.7982-5.608-1.9242-8.4815-3.0631-.1639-.7248-.8067-1.6265-2.101-2.7266-1.8853-1.6351-5.423-1.592-8.4818-.8629-3.3737-.7938-6.7086-1.0742-9.9227-.3063-26.1658 7.2048-11.3248 24.8197-20.9369 42.5081 1.3676 2.8991 16.1093 19.8457 37.4388 15.2857 0 0-7.291-17.5291 9.1681-25.9419 13.352-6.8466 23.003-19.5218 3.317-24.893z" fill="#8bc53f"/><path d="m109.464 66.1235c.003.3144-.088.6224-.261.8851-.172.2627-.419.4682-.709.5905-.289.1223-.609.1558-.917.0964-.309-.0595-.593-.2092-.817-.4303-.223-.2211-.376-.5035-.439-.8116-.063-.308-.033-.6277.086-.9187.12-.2909.322-.5399.583-.7155.261-.1755.568-.2697.882-.2705.208-.0012.414.0386.607.1172.192.0785.368.1942.515.3404.148.1462.266.3201.346.5118.081.1916.123.3973.124.6052z" fill="#fff"/><path d="m87.1685 47.9393c1.9068.138 8.8053 2.39 10.5828 3.598-1.4712-4.3142-6.4714-4.8751-10.5828-3.598z" fill="#009345"/><path d="m88.9848 58.8195c0 1.4506-.4302 2.8686-1.2361 4.0747s-1.9513 2.1461-3.2914 2.7012c-1.3402.5551-2.8148.7004-4.2375.4174s-2.7296-.9815-3.7553-2.0072-1.7242-2.3326-2.0072-3.7552c-.283-1.4227-.1377-2.8974.4174-4.2375.5551-1.3402 1.4951-2.4856 2.7012-3.2915s2.6241-1.236 4.0747-1.236c1.9451 0 3.8106.7727 5.186 2.1481 1.3755 1.3754 2.1482 3.2409 2.1482 5.186z" fill="#fff"/><path d="m86.8146 58.8842c.0008 1.019-.3006 2.0153-.8661 2.863s-1.3697 1.5086-2.3108 1.8991c-.9412.3906-1.9771.4932-2.9766.2949s-1.9178-.6885-2.6386-1.4088c-.7209-.7202-1.2119-1.638-1.411-2.6374-.1991-.9993-.0973-2.0353.2924-2.9768.3898-.9415 1.05-1.7463 1.8972-2.3125s1.8433-.8684 2.8623-.8684c1.3651.0011 2.674.5436 3.6396 1.5085.9657.9648 1.5093 2.2733 1.5116 3.6384z" fill="#58595b"/><path d="m115.397 69.3504c-5.932 4.1805-12.68 7.3342-22.2487 7.3342-4.4782 0-5.3842-4.7457-8.3438-2.4246-1.5315 1.2037-6.9027 3.8828-11.1954 3.693-4.2926-.1899-11.2169-2.7137-13.1368-11.8383-.7636 9.1246-1.1562 15.8462-4.5817 23.5514 6.8251 10.9279 23.0941 19.3539 37.8573 15.7299-1.5833-11.0792 8.0981-21.9338 13.5551-27.4862 2.062-2.101 6.04-5.5351 8.094-8.5766z" fill="#8bc53f"/><path d="m115.163 69.6267c-1.89 1.6253-3.998 2.9774-6.264 4.0166-2.258 1.0731-4.613 1.9311-7.032 2.5626-2.4161.6256-4.9442 1.0958-7.5026.8629-2.5583-.233-5.1771-1.1045-6.8639-3.02l.082-.0949c2.088 1.3503 4.4738 1.8249 6.8553 1.8939 2.4178.0702 4.836-.1309 7.2092-.5996 2.397-.4997 4.743-1.2219 7.006-2.1572 2.3-.8782 4.465-2.0749 6.433-3.5549z" fill="#58595b"/></svg>