<svg enable-background="new 0 0 402 136" viewBox="0 0 402 136" xmlns="http://www.w3.org/2000/svg"><path d="m24 0h353.956c13.255 0 24 10.745 24 24v88c0 13.255-10.745 24-24 24h-353.956c-13.255 0-24-10.745-24-24v-88c0-13.255 10.745-24 24-24z" fill="#fff"/><path d="m43.264 45.928c.191.064.212.096.318.257.1.157.1.157.253.257.024.049.048.098.072.149.116.228.261.408.424.604.817 1.004.883 1.215.917 1.228.162.094.246.205.361.353.193.243.392.476.603.703.212.229.421.46.624.697.088.102.088.102.225.217.086.103.086.103.082.232-.018.052-.035.104-.054.157-.013.039-.026.078-.039.118-.114.33-.114.33-.247.396-.041.104-.082.209-.119.314-.059.161-.125.317-.191.475-.024.059-.049.118-.074.179-.045.108-.09.215-.137.322-.156.378-.205.745-.238 1.15-.004.042-.007.084-.011.128-.004.056-.004.056-.008.114-.02.117-.02.117-.078.253-.065.172-.071.305-.071.488v.195c0 .067.001.133.001.202 0 .066-.001.132-.001.201.001.339.021.624.13.949.02.112.039.224.056.337.264 1.703 1.25 3.118 2.591 4.179.197.144.404.265.617.383.035.023.069.046.105.07 0 .038.08.126.121.132.187.045.338.12.507.211 0 .038.084.134.128.144.407.097.795.219 1.186.37 0 .038.098.124.199.133.09.009.179.018.269.027.064.006.064.006.13.012.269.028.522.077.784.143.412.099.813.115 1.235.123.073.002.146.004.221.006.177.005.355.009.532.012-.028.218-.063.428-.114.642-.069.302-.094.603-.118.911-.005.059-.01.118-.016.179-.025.304-.04.604-.036.909.008.821.008.821-.178 1.04-.167.09-.328.146-.509.202-.102.055-.201.114-.3.175-.237.14-.475.275-.715.409-.059.033-.118.066-.179.1-.119.067-.238.133-.358.199-.055.031-.11.062-.167.094-.05.028-.1.055-.151.084-.119.075-.202.154-.3.253-.038 0-.114.075-.114.114-.03.013-.061.026-.092.04-.52.228-1.019.482-1.507.773-.204.12-.628.348-.628.386-.121.082-.121.082-.278.171-.218.124-.218.124-.407.286-.107.038-.214.076-.322.114-.209.088-.395.209-.586.331-.12.069-.272.182-.291.24-.106.054-.106.054-.232.096-.042.014-.084.029-.127.043-.032.01-.065.021-.098.031v.114c.198.085.198.085.4.171 0 .038.416.239.567.335.155.096.305.186.468.268.139.07.265.145.396.228.165.105.324.189.51.253 0 .038.44.25.603.348.089.053.089.053.181.107.062.037.123.074.187.113.122.073.245.146.368.219.054.033.108.065.164.099.144.08.285.143.439.2 0 .038.137.142.207.157.239.06.4.146.592.3 0 .038.417.243.571.343.06.034.12.068.182.104 1.066.607 1.066.607 1.36.981.095.086.193.169.292.25.477.413.905.935 1.249 1.463 0 .038.075.114.114.114.212.279.388.583.521.907.069.167.11.238.243.368.191.196.284.405.402.651.089.183.183.362.28.541.033.062.066.123.101.187.079.146.159.29.24.435.288.522.494 1.026.67 1.595.095.267.185.51.35.742.147.235.297.742.335.742.047.134.093.269.139.403.013.038.026.075.04.114.084.247.239.739.278.739.075.207.19.571.228.571.023.069.045.137.069.208.076.229.154.457.232.686.046.136.092.273.139.409.024.069.047.139.072.21.022.067.045.133.068.202.031.09.031.09.062.182.044.159.12.388.159.388.01.036.021.072.031.109.22.769.452 1.532.711 2.289.294.864.586 1.726.761 2.624.039.178.093.345.153.517.02.072.04.144.061.218.035.173.12.388.125.464.021.221.077.376.182.571.127.237.187.442.23.706.036.183.091.355.148.533.068.213.124.412.146.635.007.061.097.223.136.243.034.116.034.116.061.257.023.173.023.173.111.314.016.091.03.183.043.275.059.341.16.842.414 1.096.173-.549.342-1.099.506-1.651.067-.225.136-.449.212-.671.072-.215.129-.43.178-.651.022-.096.022-.096.044-.195.01-.048.021-.095.031-.144.038 0 .195-.47.257-.621.065-.162.098-.301.111-.475.033-.389.169-.755.297-1.122.153-.446.276-.901.403-1.355.024-.086.048-.171.072-.257.058-.208.116-.416.174-.624.038 0 .247-.746.332-1.021.023-.076.023-.076.046-.153.092-.297.189-.588.315-.873.068-.171.114-.346.163-.524.025-.088.049-.176.074-.264.025-.092.051-.183.076-.275.013-.047.026-.094.04-.143.032-.115.064-.231.096-.346.038 0 .126-.132.133-.2.032-.253.106-.474.199-.71.015-.04.031-.08.047-.121.081-.209.167-.414.26-.618.097-.211.163-.423.226-.646.098-.324.218-.642.334-.96.015-.042.031-.085.046-.128.171-.465.36-.923.587-1.363.088-.183.153-.373.223-.564.037-.077.074-.154.114-.228.038 0 .128-.108.136-.164.036-.178.036-.178.15-.293.058-.145.112-.289.164-.435.118-.323.243-.632.407-.935.038 0 .382-.699.555-.969.114-.18.223-.363.328-.548.028-.048.055-.096.084-.146.028-.048.055-.097.084-.147.094-.136.392-.451.434-.588.057 0 .493-.723.771-.999.092-.093.176-.19.261-.29.166-.19.338-.375.514-.557.045-.047.091-.094.138-.142.153-.134.304-.209.487-.297.047-.048.094-.097.143-.146.159-.155.276-.19.485-.253.024-.025.047-.049.072-.075.143-.139.312-.228.485-.325.034-.02.068-.039.103-.059.173-.098.345-.186.53-.262.183-.066.183-.066.295-.193.105-.049.105-.049.225-.093.039-.015.079-.03.119-.045.113-.033.284-.147.284-.205.385-.228.514-.304.514-.343.67-.34.67-.34.91-.435.175-.07.175-.07.303-.182.242-.192.512-.325.785-.468.05-.026.05-.026.101-.054.105-.055.211-.11.316-.164.065-.033.129-.067.196-.101.18-.078.661-.366.7-.366-.198-.227-.427-.349-.689-.489-.092-.05-.184-.1-.275-.15-.048-.026-.095-.052-.144-.079-.25-.137-.497-.278-.744-.42-.069-.039-.069-.039-.14-.08-.043-.025-.086-.05-.131-.075-.057-.033-.057-.033-.115-.066-.103-.068-.103-.068-.19-.157-.136-.134-.309-.183-.484-.254-.334-.155-.334-.155-.4-.286-.113-.042-.227-.08-.343-.114 0-.038-.188-.152-.286-.171 0-.038-.094-.137-.189-.161-.209-.067-.241-.093-.382-.239-.383-.255-.794-.468-1.199-.685 0-.038-.106-.131-.161-.139-.182-.032-.182-.032-.353-.089 0-.038-.082-.145-.125-.161-.16-.068-.302-.141-.446-.239 0-.038-.101-.126-.153-.132-.207-.043-.314-.073-.475-.211-.033-.176-.046-.324-.049-.501-.002-.05-.004-.1-.006-.151-.006-.16-.01-.32-.013-.48-.006-.209-.013-.417-.02-.626-.002-.051-.003-.101-.005-.153-.014-.362-.051-.712-.112-1.07-.022-.151-.028-.293-.023-.446.042-.002.084-.005.127-.007 1.119-.06 1.119-.06 2.209-.3.14-.042.282-.082.423-.121.436-.122.87-.245 1.297-.394.149-.047.492-.206.512-.264.117-.074.117-.074.271-.15.305-.158.58-.34.857-.541.231-.165.356-.241.356-.28.086-.07.086-.07.203-.15.219-.158.382-.331.554-.538.099-.111.201-.201.317-.293.166-.137.226-.24.296-.446.07-.105.144-.205.218-.306.073-.103.131-.207.181-.323.038 0 .142-.075.157-.114.071-.171.071-.171.178-.368.233-.459.346-.984.437-1.488.017-.09.035-.18.056-.269.09-.393.103-.771.099-1.173 0-.066-.001-.131-.001-.199-.008-.646-.059-1.22-.301-1.825-.099-.293-.244-.903-.283-.903-.019-.113-.132-.343-.171-.343-.013-.035-.026-.069-.04-.105-.122-.313-.258-.613-.414-.91-.057-.121-.098-.224-.117-.356.075-.128.075-.128.171-.228.038 0 .142-.065.156-.099.085-.152.185-.251.311-.372.273-.267.523-.547.767-.839.229-.273.229-.273.382-.385.118-.092.229-.303.268-.303.013-.03.026-.06.039-.09.102-.187.23-.352.36-.52.026-.034.052-.068.078-.103.193-.251.193-.251.322-.315.06-.113.117-.227.171-.343.038 0 .138-.075.15-.114.09-.197.207-.351.339-.522.069-.09.133-.184.196-.278h.171c.18.231.285.475.4.742.04.058.08.115.121.175.113.177.24.51.278.51.069.165.138.331.207.496.048.116.097.232.146.348.115.274.293.812.332.812.225.409.532 1.37.571 1.37.017.096.017.096.033.194.015.084.03.168.045.252.011.063.011.063.022.128.037.203.069.337.185.511.032.115.032.115.057.243.037.186.085.367.137.549.3 1.077.448 2.145.531 3.257.014.175.014.175.046.337.028.181.036.351.037.534 0 .07.001.139.001.211 0 .077 0 .153.001.23 0 .081.001.163.001.244.001.176.002.352.003.527.001.282.003.564.004.845.002.402.004.803.006 1.205.003.624.007 1.248.01 1.872 0 .051.001.103.001.155.002.258.003.515.005.773.002.306.004.613.005.919.003.563.007 1.125.01 1.688 0 .039 0 .078.001.119.005.795.01 1.59.018 2.384.002.181.003.362.004.542.005.918.039 1.83.118 2.745.006.066.006.066.011.133.03.472.03.472.133.929.01.098.018.196.025.295.004.059.008.118.012.179.006.094.006.094.013.19.047.629.119 1.243.265 1.858.07.298.11.589.135.894.039.407.099.805.178 1.206.014.072.014.072.029.146.045.219.096.4.2.6.138.452.218.919.3 1.384.042.209.097.41.157.615.02.095.04.19.057.286.033.172.07.339.121.507.05.178.125.407.164.407.008.034.016.068.023.104.036.157.072.314.109.471.012.054.024.108.037.163.071.305.158.577.288.861.032.096.062.192.089.289.138.482.312.952.482 1.424.017.046.033.092.05.14.053.147.107.295.16.442.017.047.034.094.051.143.016.044.032.089.049.134.014.039.029.079.043.12.048.122.048.122.159.278.035.136.065.273.093.41.015.073.03.145.045.22.011.056.109.169.148.169.014.035.028.071.042.107.148.374.308.742.474 1.108.091.202.178.403.251.612.062.17.138.321.228.478.181.315.306.648.431.988.052.141.052.141.176.247.129.133.148.219.168.4-.189-.085-.336-.194-.496-.325-.231-.188-.465-.372-.703-.552-.115-.094-.115-.094-.223-.204-.14-.139-.291-.253-.448-.372-.29-.22-.575-.447-.857-.678-.319-.261-.642-.515-.971-.764-.395-.3-.777-.611-1.156-.932-.15-.123-.3-.246-.451-.369-.135-.11-.27-.222-.404-.333-.417-.345-.835-.687-1.263-1.02-.266-.207-.525-.421-.783-.638-.125-.106-.125-.106-.297-.153-.015.04-.03.081-.045.122-.075.175-.164.327-.266.488-.041.066-.082.131-.123.197-.022.035-.044.071-.067.107-.13.208-.257.418-.385.628-.22.361-.441.721-.662 1.08-.075.121-.149.243-.224.364-.178.29-.357.579-.541.864-.233.364-.445.74-.657 1.117-.038 0-.236.305-.296.457-.024.059-.047.117-.072.178-.023.059-.047.118-.071.179-.069.144-.121.231-.246.328-.038 0-.142.075-.157.114-.09.215-.194.421-.3.628-.038 0-.14.074-.153.112-.102.233-.234.443-.368.658-.042.068-.042.068-.085.137-.057.092-.113.183-.17.275-.074.119-.147.238-.22.357-.298.486-.298.486-.432.687-.212-.031-.285-.105-.414-.271-.137-.165-.256-.28-.443-.385-.226-.129-.369-.29-.532-.49-.091-.104-.183-.186-.292-.271-.048-.041-.097-.082-.146-.125 0-.057-.064-.178-.096-.182-.187-.066-.28-.189-.418-.332-.37-.392-.37-.392-.789-.728-.195-.138-.317-.287-.468-.471-.099-.09-.201-.176-.304-.261-.175-.148-.332-.315-.491-.48-.228-.238-.228-.238-.494-.429-.18-.111-.291-.256-.426-.417-.349-.391-.349-.391-.798-.64-.038.132-.258.48-.274.522-.073.174-.161.329-.258.492-.17.288-.335.578-.496.871-.038 0-.142.08-.157.121-.081.185-.188.339-.3.507-.038.095-.077.19-.114.286-.057.076-.114.152-.171.228-.039.095-.077.19-.114.286-.038.057-.075.113-.114.171-.038 0-.142.079-.157.12-.112.26-.27.49-.421.728-.092.154-.156.3-.221.466-.068.081-.136.162-.205.241-.209.263-.365.569-.53.862-.035.062-.071.125-.108.189-.033.058-.065.117-.099.177-.029.043-.057.086-.087.13-.038 0-.142.097-.157.146-.079.218-.181.397-.3.596-.038 0-.138.092-.15.139-.086.223-.201.395-.339.589-.086.134-.142.265-.196.414-.038 0-.145.082-.161.124-.227.541-.586 1.04-.898 1.536-.254.404-.503.812-.752 1.219-.472.775-.472.775-.681 1.1-.16.25-.315.502-.468.757-.022.037-.044.073-.067.111-.102.171-.201.341-.287.521-.038 0-.137.061-.16.123-.098.233-.228.443-.357.66-.075.127-.148.256-.22.385-.035.062-.069.124-.105.188-.032.057-.063.115-.095.174-.03.042-.059.083-.09.126-.057 0-.113 0-.171 0 0-.038 0-.075 0-.114-.038 0-.075 0-.114 0-.206-.281-.359-.601-.51-.914-.138-.282-.299-.532-.483-.785-.08-.113-.15-.225-.216-.346-.098-.172-.207-.314-.332-.468-.103-.157-.179-.304-.25-.478-.086-.191-.178-.333-.302-.499-.112-.159-.201-.33-.292-.501-.072-.125-.154-.234-.24-.349-.049-.084-.097-.168-.143-.253-.079-.145-.159-.287-.246-.428-.068-.118-.143-.232-.182-.232-.071-.108-.137-.219-.2-.332-.101-.179-.2-.354-.314-.525 0-.057-.075-.171-.114-.171-.078-.111-.078-.111-.164-.261-.03-.052-.06-.104-.091-.157-.029-.051-.058-.101-.087-.153-.024-.041-.048-.081-.073-.123-.155-.262-.231-.391-.269-.391-.14-.153-.207-.316-.284-.506-.103-.216-.239-.411-.371-.61-.087-.14-.087-.14-.144-.311-.057-.038-.113-.075-.171-.114-.039-.178-.132-.343-.171-.343-.019-.094-.132-.286-.171-.286-.078-.111-.078-.111-.164-.261-.03-.052-.061-.104-.092-.158-.071-.125-.141-.249-.212-.374-.096-.175-.096-.175-.203-.307-.071-.1-.147-.271-.186-.271-.006-.037-.17-.266-.228-.286-.074-.128-.138-.252-.2-.385-.139-.293-.139-.293-.298-.576-.073-.124-.149-.238-.187-.238-.083-.151-.19-.4-.228-.4-.074-.094-.074-.094-.15-.218-.025-.04-.051-.081-.077-.122-.058-.117-.134-.288-.173-.288-.171-.328-.247-.457-.286-.457-.019-.094-.132-.286-.171-.286-.006-.037-.012-.073-.018-.111-.013-.039-.152-.155-.211-.175-.092-.155-.092-.155-.182-.346-.03-.063-.061-.126-.092-.191-.023-.049-.045-.098-.069-.148-.189.04-.266.089-.4.228-.038 0-.075 0-.114 0-.012.031-.023.062-.035.093-.112.19-.269.322-.433.467-.068.061-.135.122-.203.184-.032.029-.065.059-.098.089-.105.096-.206.196-.306.298-.167.17-.344.325-.525.48-.152.135-.292.28-.431.428-.083.073-.083.073-.197.073v.114c-.084.083-.084.083-.2.178-.169.144-.33.291-.485.45-.183.186-.374.357-.571.526-.119.106-.231.217-.343.33-.144.146-.29.284-.446.418-.351.302-.675.636-.993.971-.103.096-.103.096-.217.103-.175-.098-.246-.235-.343-.407 0-.057-.075-.171-.114-.171-.044-.081-.044-.081-.09-.163-.04-.072-.08-.144-.121-.215-.029-.053-.029-.053-.059-.107-.101-.18-.206-.343-.341-.501-.122-.144-.182-.264-.249-.438-.149-.325-.37-.62-.568-.917 0-.057-.075-.171-.114-.171-.006-.037-.17-.266-.228-.286-.156-.213-.361-.685-.4-.685-.057-.17-.247-.514-.286-.514-.057-.102-.114-.204-.171-.307-.032-.057-.064-.114-.096-.173-.075-.149-.075-.149-.075-.263-.038 0-.075 0-.114 0-.006-.037-.17-.266-.228-.286-.067-.094-.067-.094-.129-.214-.023-.043-.045-.086-.069-.131-.023-.045-.046-.091-.07-.137-.024-.045-.047-.09-.072-.137-.174-.336-.174-.336-.174-.467-.038 0-.075 0-.114 0-.071-.108-.137-.219-.2-.332-.101-.179-.2-.354-.314-.525 0-.057-.075-.171-.114-.171-.006-.037-.012-.073-.018-.111-.013-.039-.152-.155-.211-.175-.055-.1-.055-.1-.104-.228-.121-.293-.285-.542-.468-.799-.3.089-.505.283-.739.482-.087.073-.174.146-.261.218-.043.036-.086.072-.131.11-.18.149-.363.293-.547.436-.289.226-.575.455-.858.688-.238.195-.479.387-.72.579-.05.042-.1.084-.152.127-.133.101-.133.101-.248.101v.114c-.112.096-.225.186-.343.275-.074.057-.148.114-.221.171-.039.03-.077.06-.117.09-.194.151-.385.307-.575.463-.289.236-.58.47-.874.7-.341.266-.676.539-1.01.814-.113.093-.226.186-.339.278-.05.041-.1.082-.151.124-.35.282-.35.282-.48.282.056-.303.119-.537.286-.799.081-.188.155-.38.228-.571.038-.095.076-.19.114-.286.038 0 .138-.144.15-.218.063-.289.192-.519.338-.774.109-.198.18-.395.254-.607.055-.134.113-.267.171-.4.038 0 .152-.339.171-.514.057-.019.183-.168.189-.225.037-.26.123-.499.211-.746.019-.057.038-.113.057-.171.038 0 .122-.081.131-.163.041-.286.139-.55.233-.822.124-.363.246-.724.338-1.097.118-.426.273-.842.418-1.259.027-.078.027-.078.054-.157.017-.049.034-.098.052-.149.015-.044.031-.089.047-.134.04-.103.04-.103.098-.16.015-.076.027-.152.037-.229.007-.047.014-.094.021-.142.014-.099.027-.197.041-.296.044-.301.114-.543.244-.818.092-.282.146-.565.196-.856.033-.177.075-.35.118-.525.102-.43.152-.864.2-1.303.038 0 .147-.829.214-1.199.021-.122.042-.243.063-.365.011-.062.022-.125.033-.189.171-.985.291-1.956.351-2.955.017-.285.044-.565.082-.849.164-1.305.182-2.619.201-3.933.001-.079.002-.157.004-.236.02-1.353.032-2.705.039-4.058 0-.071 0-.071.001-.144.005-.825.009-1.65.013-2.476.003-.541.005-1.082.009-1.623.002-.274.003-.548.004-.822.001-.17.002-.339.003-.509.001-.114.001-.227.001-.341.004-.517.03-1.03.067-1.545.038 0 .131-.393.136-.485.002-.045.004-.09.005-.137.013-.26.046-.496.115-.747.054-.212.08-.428.111-.644.095-.628.201-1.299.491-1.873.064-.121.064-.121.109-.301.061-.211.061-.211.146-.4.104-.256.153-.51.2-.782.038 0 .227-.565.286-.857.038 0 .653-1.372.957-1.968.075-.146.075-.146.128-.316.038 0 .114-.113.114-.171.042.015.194-.211.233-.328z"/><path d="m62.898 33.187h.21c.112 0 .112 0 .227.001h.115c2.65.006 2.65.006 3.339.235.101.007.202.013.303.018.304.02.571.087.86.178.359.113.701.182 1.076.226.441.07.871.2 1.301.32 0 .038.871.257 1.256.4 0 .038.079.124.119.129.342.051.587.131.879.311.177.09.351.135.543.184.312.083.536.187.794.377.197.136.414.221.634.312.038.019.075.038.114.057 0 .038.078.124.118.128.218.056.376.155.567.271 0 .038.141.152.214.171.371.124.669.346.985.571.066.046.132.093.197.139.836.59 1.644 1.204 2.397 1.898.125.115.253.226.382.337.221.191.424.397.628.606.236.228.503.173.815.17.414-.018.743-.124 1.12-.294.114-.039.343-.19.343-.228.066-.035.132-.069.201-.105.498-.265.943-.534 1.367-.909.129-.114.26-.217.399-.318.282-.208.5-.451.717-.724.121-.132.121-.132.228-.228.038 0 .142-.062.157-.094.087-.164.191-.309.3-.459.04-.056.08-.111.121-.168.107-.135.107-.135.221-.192-.029.343-.138.605-.286.914-.152.328-.281.656-.393 1-.073.161-.378.556-.415.651-.098.236-.219.462-.335.69-.038 0-.141.076-.155.115-.094.217-.215.41-.342.609-.025.04-.051.081-.077.122-.226.357-.46.709-.719 1.044-.085.108-.085.108-.132.251-.07.165-.152.256-.289.371-.038 0-.139.077-.152.117-.101.222-.24.397-.391.586-.028.037-.057.074-.086.112-.073.092-.15.182-.228.27-.038 0-.075 0-.114 0-.019.045-.019.045-.038.091-.105.188-.242.343-.383.505-.045.052-.045.052-.091.106-.266.306-.541.605-.818.901-.162.175-.319.352-.474.533-.081.091-.165.176-.251.262-.048.051-.097.101-.146.153-.139.132-.282.198-.296.232-.082.147-.173.246-.3.357-.038 0-.152.113-.171.171-.083.071-.166.143-.251.211-.171.14-.321.302-.474.462-.258.264-.53.497-.818.728-.183.153-.357.313-.53.477-.263.247-.534.48-.817.703-.034.027-.068.054-.102.081-.144.112-.433.326-.433.365-.094.038-.286.19-.286.228-.096.084-.096.084-.229.18-.048.035-.096.07-.145.106-.051.036-.101.073-.154.11-.05.036-.1.072-.151.11-.093.068-.187.135-.28.203-.084.061-.167.124-.249.188-.105.074-.219.149-.219.188-.108.086-.108.086-.25.178-.046.031-.093.062-.141.093-.124.071-.238.146-.238.185-.115.083-.115.083-.275.178-.229.141-.448.288-.664.45-.27.199-.55.368-.841.534-.142.083-.279.169-.415.262-.576.391-1.177.733-1.792 1.06-.253.136-.496.274-.732.439-.211.145-.412.228-.658.295-.118.032-.118.032-.22.151-.198-.009-.306-.019-.446-.165-.431-.371-.811-.482-.811-.521-.151-.038-.457-.19-.457-.228-1.099-.325-2.18-.547-3.321-.318-.244.049-.492.077-.739.109-.18.041-.297.11-.452.209-.081.03-.163.058-.246.082-.183.058-.35.126-.521.214-.203.104-.339.172-.35.207-.12.183-.557.372-.596.41-.15-.021-.15-.021-.286-.057 0-.038-.534-.261-.742-.343-.053-.019-.106-.038-.161-.057-.125-.057-.125-.057-.204-.14-.103-.099-.189-.139-.321-.192-.461-.197-.88-.421-1.256-.753-.264-.192-.264-.192-.571-.286 0-.038-.106-.147-.161-.164-.182-.064-.182-.064-.353-.178 0-.038-.081-.141-.164-.168-.178-.061-.178-.061-.293-.118 0-.038-.226-.19-.343-.228 0-.038-.09-.135-.136-.146-.293-.116-.525-.296-.778-.482-.074-.053-.074-.053-.15-.108-.318-.228-.629-.464-.939-.703-.269-.208-.542-.413-.815-.616-.237-.179-.456-.361-.666-.571-.08-.066-.161-.13-.243-.193-.067-.052-.067-.052-.136-.104-.16-.121-.321-.239-.483-.356-.11-.089-.11-.089-.244-.224-.157-.157-.322-.296-.493-.436-.222-.181-.427-.367-.628-.571-.113-.106-.228-.21-.343-.314-.058-.053-.117-.106-.175-.159-.038-.035-.038-.035-.077-.07-.128-.121-.252-.246-.376-.371-.08-.08-.161-.16-.241-.24-.124-.123-.248-.246-.371-.37-.065-.065-.13-.129-.195-.194-.725-.719-.725-.719-.963-1.024 0-.038-.113-.152-.171-.171-.078-.075-.078-.075-.164-.178-.035-.041-.069-.082-.105-.124-.043-.051-.086-.102-.131-.155-.06-.068-.119-.137-.179-.205-.612-.699-.612-.699-.829-1.011-.08-.107-.08-.107-.206-.222-.196-.202-.354-.421-.517-.65-.033-.046-.066-.092-.099-.139-.254-.357-.501-.718-.739-1.085-.043-.065-.085-.13-.128-.195-.241-.371-.473-.745-.693-1.128-.09-.156-.184-.31-.279-.464-.13-.217-.235-.432-.328-.667-.136-.336-.274-.669-.439-.992-.275-.542-.275-.542-.189-.835.041.048.081.097.123.146.503.612.503.612 1.044 1.188.089.093.24.282.318.321 0 .038.08.141.121.154.197.088.352.211.518.345.354.28.723.512 1.119.73.042.028.084.055.127.084 0 .038.065.127.098.133.291.06.546.141.815.267 0 .038.131.131.198.139.042.005.083.01.126.016.044.005.087.011.132.017.162.02.324.04.485.061.062.008.062.008.126.016.101.013.202.025.302.038.007-.034.013-.069.02-.104.056-.188.178-.283.323-.41.038 0 .142-.085.171-.171.085-.086.085-.086.196-.178.239-.202.47-.413.7-.626.118-.099.223-.157.36-.224.053-.067.053-.067.107-.136.112-.138.211-.216.36-.309.132-.088.252-.187.375-.287.239-.194.484-.373.738-.547.12-.083.237-.169.354-.256.178-.121.178-.121.296-.149.126-.023.126-.023.236-.157.176-.172.349-.268.567-.379.117-.056.117-.056.165-.178.092-.051.092-.051.214-.104.047-.02.094-.04.142-.061.166-.067.333-.128.501-.189.359-.136.692-.307 1.028-.491.352-.192 1.085-.487 1.085-.526.092-.029.183-.057.275-.086.051-.016.102-.032.155-.048.142-.037.313-.113.313-.152.226-.028.457-.132.457-.171.897-.306 1.834-.493 2.759-.696.064-.014.128-.029.194-.043.876-.189 1.764-.259 2.655-.332.128-.011.256-.021.384-.032.075-.006.15-.012.227-.019.233-.025.399-.084.632-.084z"/><path d="m63.585 57.21c.06 0 .121.001.183.001.595.012 1.051.13 1.546.47.103.067.202.11.316.157.351.168.618.47.895.737.095.088.194.169.294.251.223.189.392.408.564.642.03.04.061.08.092.122.222.299.222.299.259.452.009.035.018.069.027.105.038.019.075.038.114.057.04.089.079.179.115.269.069.159.148.312.228.466.126.249.228.491.306.759.038.122.038.122.151.276.029.12.029.12.049.257.007.05.015.099.022.151s.014.103.022.157c.008.051.015.103.023.155.035.239.131.708.17.708.276 1.016.187 2.14.199 3.184.002.201.005.402.008.603.001.092.001.092.001.185-.007.531-.007.531.233.979l.108.063c.109.065.109.065.193.125 0 .038.51.306.77.394.144.063.213.119.315.234.257.182.527.337.801.493.037.026.074.052.113.078 0 .038.264.152.4.171.019.057.284.251.4.286.057.038.113.075.171.114v.228c-.035.013-.071.025-.107.038-.323.121-.595.264-.875.466-.104.067-.218.142-.218.181-.094.038-.286.19-.286.228-.083.064-.17.124-.257.182-.98.693-1.783 1.619-2.513 2.563-.025.032-.05.064-.075.097-.131.171-.131.171-.239.356-.038 0-.138.094-.15.143-.085.216-.195.36-.337.54-.118.163-.184.328-.255.516-.038 0-.147.082-.164.125-.059.149-.119.297-.178.446-.038 0-.134.094-.144.142-.014.062-.028.123-.042.186-.02.091-.02.091-.04.185-.066.191-.357.531-.406.672-.019.051-.038.101-.058.153-.026.073-.026.073-.053.147-.027.073-.055.145-.082.218-.014.037-.027.073-.041.111-.303.813-.303.813-.473 1.174-.171.368-.309.747-.448 1.127-.042.114-.085.227-.129.341-.082.218-.152.44-.219.663-.094.305-.194.606-.303.907-.1.274-.184.543-.246.828-.038 0-.191.592-.225.792-.009.053-.018.106-.027.16-.034.132-.232.498-.27.625-.03.102-.03.102-.061.206-.015.052-.03.105-.046.158-.057 0-.113 0-.171 0-.048-.147-.096-.295-.143-.443-.014-.042-.027-.083-.041-.126-.013-.04-.026-.081-.039-.123-.018-.056-.018-.056-.036-.112-.026-.11-.102-.338-.14-.338-.131-.337-.247-.971-.286-.971-.011-.041-.022-.083-.033-.125-.095-.352-.095-.352-.206-.699-.046-.146-.122-.375-.161-.375-.019-.081-.038-.162-.057-.243-.011-.045-.021-.09-.032-.137-.025-.135-.1-.363-.139-.363-.417-1.108-.417-1.108-.575-1.67-.059-.177-.139-.335-.224-.5-.016-.051-.033-.101-.05-.153-.078-.229-.178-.444-.279-.664-.084-.183-.164-.367-.242-.553-.022-.052-.045-.104-.068-.157-.046-.128-.122-.3-.161-.3-.072-.166-.19-.457-.228-.457-.048-.082-.096-.164-.143-.246-.027-.046-.053-.091-.08-.139-.062-.129-.138-.3-.177-.3-.057-.102-.114-.204-.171-.307-.032-.057-.064-.114-.096-.173-.075-.149-.15-.263-.189-.263-.083-.115-.083-.115-.178-.275-.428-.691-.917-1.356-1.504-1.921-.088-.088-.088-.088-.227-.259-.148-.173-.303-.315-.477-.462-.134-.115-.262-.235-.391-.355-.388-.35-.819-.675-1.273-.934-.059-.038-.059-.038-.119-.076 0-.038-.188-.159-.228-.171-.019-.038-.038-.075-.057-.114-.12-.064-.12-.064-.261-.121-.047-.02-.094-.04-.143-.061-.036-.015-.073-.03-.11-.046 0-.075 0-.151 0-.228.06-.029.06-.029.121-.058.052-.025.104-.051.157-.077.052-.025.103-.05.157-.076.142-.068.142-.068.25-.188.103-.047.103-.047.221-.089.039-.014.077-.028.117-.043.118-.039.357-.086.4-.204.084-.167.185-.203.35-.285.213-.11.413-.224.61-.36.148-.102.286-.185.453-.25.267-.116.458-.262.626-.502.117-.315.104-.621.105-.955.001-.073.002-.145.003-.22.002-.193.004-.386.005-.579.002-.27.005-.54.008-.811.002-.144.003-.287.004-.431.004-.425.026-.845.068-1.268.038 0 .21-1.135.335-1.631.015-.058.029-.117.044-.177.08-.305.171-.59.305-.876.038 0 .19-.377.228-.571.038 0 .147-.13.164-.196.021-.067.042-.134.064-.203.038-.019.075-.038.114-.057.032-.083.032-.083.064-.168.104-.259.276-.457.453-.67.111-.13.111-.13.203-.265.026-.032.052-.064.079-.097h.114c.028-.085.028-.085.057-.171.083-.071.166-.142.251-.21.103-.082.103-.082.227-.214.743-.724 1.619-1.153 2.657-1.143z"/><path d="m77.135 53.189c.105.049.105.049.188.224.025.075.048.15.071.225.012.036.024.073.037.11.152.478.163.962.163 1.46.001.051.001.101.002.153.001.337-.043.634-.127.96-.038 0-.125.082-.131.125-.046.184-.118.293-.23.446-.034.047-.068.094-.103.143-.036.047-.071.094-.108.143-.035.048-.071.096-.108.145-.38.442-.92.738-1.434.997-.06.032-.12.064-.182.096-.775.362-1.588.387-2.43.389-.045 0-.09 0-.137.001-.702 0-1.291-.07-1.933-.372-.107-.041-.214-.081-.321-.121-.242-.1-.474-.215-.707-.335.019-.057.038-.113.057-.171.057 0 .171-.075.171-.114.034-.013.068-.025.103-.038.333-.128.638-.279.946-.461.165-.08.531-.28.551-.358.141-.028.286-.132.286-.171.091-.038.183-.076.275-.114.051-.021.102-.042.155-.064.142-.05.313-.163.313-.221.136-.101.136-.101.325-.211.069-.041.137-.081.206-.122.035-.021.071-.041.107-.063.523-.307 1.031-.635 1.533-.975.043-.029.087-.059.131-.089.146-.099.291-.198.436-.297.047-.032.093-.063.141-.096.228-.156.449-.314.662-.489.162-.131.325-.26.489-.389.065-.052.065-.052.131-.106.042-.033.084-.065.127-.099.038-.03.075-.06.114-.091.108-.058.108-.058.231-.05z"/><path d="m50.059 53.181c.169.035.25.072.4.171 0 .038.049.137.1.161.228.12.425.283.629.439.068.051.068.051.137.103.043.033.086.065.13.099.039.03.078.06.119.09.028.026.056.052.085.079 0 .038.459.276.632.396.274.19.274.19.567.346 0 .038 1.067.697 1.513 1.041.156.11.314.189.485.272.11.059.219.118.328.178.206.113.206.113.414.221 0 .038.802.454 1.084.637.151.092.292.16.458.219v.114c.081.012.081.012.164.025.178.032.178.032.293.089v.114c-.095.039-.19.078-.284.117-.122.054-.122.054-.252.139-.943.548-2.233.593-3.29.543-.047-.002-.093-.003-.142-.005-1.153-.046-2.219-.442-3.025-1.284-.077-.086-.153-.174-.226-.264-.094-.117-.094-.117-.262-.218-.06-.113-.117-.227-.171-.343-.039-.058-.078-.115-.118-.175-.4-.702-.279-1.78-.111-2.541.081-.272.196-.517.343-.763z"/><path d="m104.488 78.944v-4.408h3.496v-17.785h-3.496v-4.407h10.944c3.572 0 6.289.905 8.151 2.717s2.793 4.503 2.793 8.075v5.016c0 3.573-.931 6.264-2.793 8.076s-4.579 2.717-8.151 2.717h-10.944zm8.512-4.559h2.508c2.026 0 3.508-.532 4.446-1.597.937-1.063 1.406-2.559 1.406-4.484v-5.32c0-1.95-.469-3.451-1.406-4.503-.938-1.051-2.419-1.577-4.446-1.577h-2.508z"/><path d="m130.555 78.944v-26.6h17.1v4.56h-12.084v6.346h11.02v4.561h-11.02v6.575h12.312v4.56h-17.328z"/><path d="m149.935 78.944 7.79-13.415-7.714-13.186h5.7l5.282 9.613h.684l5.282-9.613h5.699l-7.713 13.186 7.789 13.415h-5.699l-5.358-9.842h-.684l-5.358 9.842z"/><path d="m195.23 79.477c-1.925 0-3.647-.342-5.168-1.026-1.52-.684-2.717-1.716-3.591-3.097s-1.311-3.109-1.311-5.188v-.798h3.153v.798c0 2.204.646 3.845 1.938 4.921 1.292 1.077 2.951 1.615 4.978 1.615 2.077 0 3.661-.469 4.75-1.406 1.09-.937 1.635-2.114 1.635-3.533 0-.988-.247-1.773-.742-2.356-.494-.583-1.185-1.058-2.071-1.425s-1.926-.69-3.116-.969l-1.976-.494c-1.546-.405-2.913-.899-4.104-1.482-1.19-.582-2.122-1.349-2.793-2.299s-1.007-2.172-1.007-3.667c0-1.494.374-2.786 1.121-3.876.747-1.089 1.799-1.925 3.154-2.508 1.354-.583 2.919-.874 4.693-.874 1.798 0 3.413.311 4.845.931 1.431.621 2.559 1.533 3.382 2.736s1.235 2.717 1.235 4.541v1.596h-3.154v-1.597c0-1.292-.273-2.331-.818-3.116s-1.292-1.368-2.242-1.748c-.949-.38-2.032-.57-3.248-.57-1.748 0-3.154.387-4.219 1.159-1.063.773-1.596 1.869-1.596 3.287 0 .938.228 1.697.684 2.28s1.103 1.058 1.938 1.425 1.836.69 3.002.969l1.976.494c1.545.33 2.933.779 4.161 1.35 1.229.569 2.21 1.343 2.946 2.317.734.976 1.102 2.25 1.102 3.82 0 1.571-.393 2.938-1.178 4.104s-1.894 2.071-3.326 2.718c-1.43.644-3.107.968-5.033.968z"/><path d="m219.284 79.477c-3.167 0-5.688-.918-7.562-2.755s-2.812-4.516-2.812-8.038v-6.08c0-3.521.937-6.2 2.812-8.037s4.396-2.755 7.562-2.755c3.141 0 5.554.874 7.238 2.622s2.527 4.142 2.527 7.182v.19h-3.154v-.305c0-2.001-.538-3.641-1.614-4.921-1.077-1.278-2.743-1.919-4.997-1.919-2.255 0-4.016.69-5.282 2.071-1.268 1.381-1.9 3.312-1.9 5.795v6.232c0 2.483.633 4.415 1.9 5.795 1.267 1.381 3.027 2.07 5.282 2.07 2.254 0 3.92-.639 4.997-1.919 1.076-1.278 1.614-2.919 1.614-4.921v-.607h3.154v.493c0 3.04-.843 5.435-2.527 7.183s-4.097 2.624-7.238 2.624z"/><path d="m234.066 78.944v-26.6h10.754c1.646 0 3.097.284 4.351.854 1.255.57 2.236 1.381 2.945 2.432.709 1.052 1.064 2.312 1.064 3.781v.418c0 1.748-.418 3.129-1.254 4.143s-1.824 1.697-2.965 2.052v.532c.912.025 1.666.322 2.262.893.595.57.893 1.425.893 2.566v8.93h-3.154v-8.55c0-.76-.209-1.343-.627-1.749-.418-.405-1.045-.608-1.881-.608h-9.195v10.907h-3.193zm3.193-13.794h7.258c1.748 0 3.097-.424 4.047-1.273.95-.848 1.425-2.032 1.425-3.553v-.266c0-1.521-.469-2.704-1.406-3.554-.938-.848-2.293-1.272-4.065-1.272h-7.258v9.918z"/><path d="m258.044 78.944v-26.6h16.378v2.888h-13.186v8.892h12.121v2.889h-12.121v9.044h13.376v2.888h-16.568z"/><path d="m279.438 78.944v-26.6h16.378v2.888h-13.186v8.892h12.121v2.889h-12.121v9.044h13.376v2.888h-16.568z"/><path d="m300.831 78.944v-26.6h6.194l9.271 24.586h.494v-24.586h3.154v26.6h-6.194l-9.234-24.625h-.531v24.625z"/><path d="m326.062 78.944v-26.6h16.378v2.888h-13.186v8.892h12.121v2.889h-12.121v9.044h13.376v2.888h-16.568z"/><path d="m347.456 78.944v-26.6h10.754c1.646 0 3.097.284 4.351.854 1.255.57 2.236 1.381 2.945 2.432.709 1.052 1.064 2.312 1.064 3.781v.418c0 1.748-.418 3.129-1.254 4.143s-1.824 1.697-2.965 2.052v.532c.912.025 1.666.322 2.262.893.595.57.893 1.425.893 2.566v8.93h-3.154v-8.55c0-.76-.209-1.343-.627-1.749-.418-.405-1.045-.608-1.881-.608h-9.195v10.907h-3.193zm3.192-13.794h7.258c1.748 0 3.097-.424 4.047-1.273.95-.848 1.425-2.032 1.425-3.553v-.266c0-1.521-.469-2.704-1.406-3.554-.938-.848-2.293-1.272-4.065-1.272h-7.258v9.918z"/></svg>