<svg enable-background="new 0 0 402 136" viewBox="0 0 402 136" xmlns="http://www.w3.org/2000/svg"><path d="m24 0h354c13.3 0 24 10.7 24 24v88c0 13.3-10.7 24-24 24h-354c-13.3 0-24-10.7-24-24v-88c0-13.3 10.7-24 24-24z" fill="#fff"/><g fill="#0e0d07"><path d="m268.3 59.4c-5.5.7-9.5 3.8-11 8.4-1 3.2-.9 6.1.4 9.2 1.5 3.6 4.8 6.2 9.1 7.1 1.2.3 4.5.3 5.8.1 5-1 8.5-4.1 9.9-8.8.3-1.1.4-1.5.4-3.5s0-2.3-.4-3.5c-1.4-4.7-4.8-7.7-9.6-8.8-1-.1-3.7-.3-4.6-.2zm3.1 6.1c1.8.5 3.5 1.7 4.3 3 1.2 2.1 1.2 4.8-.1 6.8-2.3 3.6-7.4 4.2-10.5 1.2-2.6-2.5-2.7-6.4-.2-9.1 1.6-1.7 4.2-2.4 6.5-1.9z"/><path d="m294.9 59.4c-5.5.7-9.5 3.8-11 8.4-1 3.2-.9 6.1.4 9.2 1.5 3.6 4.8 6.2 9.1 7.1 1.2.3 4.5.3 5.8.1 5-1 8.5-4.1 9.9-8.8.3-1.1.4-1.5.4-3.5s0-2.3-.4-3.5c-1.4-4.7-4.8-7.7-9.6-8.8-1-.1-3.7-.3-4.6-.2zm3.1 6.1c1.8.5 3.5 1.7 4.3 3 1.2 2.1 1.2 4.8-.1 6.8-2.3 3.6-7.4 4.2-10.5 1.2-2.6-2.5-2.7-6.4-.2-9.1 1.6-1.7 4.2-2.4 6.5-1.9z"/><path d="m330.8 59.5c-3.2.5-5.6 2.5-6.3 5.4-.7 2.8-.2 5.6 1.3 7 .9.8 1.9 1.3 4.8 2.2 2.8.9 3.4 1.3 3.7 2.2.3 1.1-.5 2.4-1.7 2.7-.7.2-1.9.2-2.7 0-.9-.2-2.5-1-3.2-1.6-.3-.3-.7-.5-.7-.5-.1 0-.4.5-.8 1.2-.5.9-.6 1.1-.7.9v-.3h-3.7-3.8v-9.4-9.4h-3.1-3.1v12 12h6.8 6.8v-.6c0-.4 0-.6.1-.6 0 0 .6.3 1.2.6 2 .9 3.3 1.2 5.8 1.2 2.4 0 3.6-.2 5.1-.9 1.2-.6 2.8-2.2 3.3-3.3 1.1-2.2 1.2-5.2.3-7.1-.2-.4-.7-1-1.2-1.5-1-1.1-2.2-1.6-5.1-2.5-1.1-.4-2.3-.8-2.5-.9-.9-.6-1.1-1.8-.4-2.6 1.3-1.4 3.5-1.2 5.9.3l.5.3 1.2-2.4c.7-1.3 1.2-2.4 1.2-2.4-.1-.1-1.9-.8-2.9-1.1-2.1-1-4.3-1.2-6.1-.9z"/><path d="m158.7 68.5v15.8h5.6c3.1 0 6.3-.1 7.1-.2 6.9-.9 12-5 13.6-11.2.5-2 .7-5.6.3-7.8-.8-4.1-2.9-7.5-6.2-9.7-1.5-1-2.8-1.6-4.9-2.2-1.7-.5-1.9-.5-8.5-.5l-6.8-.1v15.9zm12.2-9.3c4.3.9 7.2 4.6 7.2 9.1 0 3-.9 5.6-2.7 7.3-1.7 1.7-4.3 2.6-7.8 2.6h-1.6v-9.6-9.6h1.9c.9-.1 2.3 0 3 .2z"/><path d="m187.9 68.5v15.8h13.3 13.2l3.4-4.8c1.9-2.6 3.5-4.8 3.5-4.8.1 0 1.7 2.2 3.5 4.8l3.4 4.8h4.3c2.4 0 4.3-.1 4.3-.1 0-.1-2.5-3.6-5.6-7.9l-5.6-7.8 5.4-7.5c2.9-4.1 5.5-7.6 5.7-7.8.3-.3.3-.3.3 2.9v3.2h3.3 3.3v12.5 12.5h3.9 3.9v-12.5-12.5h3.8l3.8-.1-2-3.2-2-3.2h-13.3-13.3l-3.4 4.8c-1.9 2.6-3.5 4.8-3.5 4.8-.1 0-1.6-2.2-3.5-4.8l-3.4-4.8h-13.2-13.3v15.7zm23.4-7.9c3 4.2 5.5 7.8 5.5 7.9s-2.5 3.7-5.6 8l-5.6 7.8-.1-3v-3h-5.2-5.2v-3.5-3.5h4.3 4.3v-3-3h-4.3-4.3v-3.3-3.1h5.2 5.2v-3c0-1.7 0-3 .1-3s2.6 3.5 5.7 7.7z"/></g><path clip-rule="evenodd" d="m89.7 29c-5.3 2.7-9.6 5.1-9.6 5.1 0 .2 12.6 6.6 13.1 6.6.2 0 1.7-.7 3.3-1.5l2.9-1.5 3.2 1.6 3.2 1.6 5.2-2.3c7.8-3.5 8.7-3.9 8.5-4-.2-.2-3-1.7-10.6-5.7-3.7-1.9-7.3-3.8-8-4.2s-1.3-.7-1.5-.7c-0 .1-4.4 2.3-9.7 5zm-23 12-5.5 2.8v12.4c0 6.8.1 12.4.2 12.4s2.8-1.2 6-2.6l5.8-2.6v-13l2.8 1.5c2.2 1.2 4.4 2.4 6.6 3.6l3.7 2 1.7-.8c1-.5 2.1-.9 3.1-1.4.8-.4 2.8-1.3 4.4-2s3.1-1.4 3.3-1.6c.3-.2-3.1-2.1-12.6-7-7.2-3.7-13.2-6.7-13.5-6.7s-3 1.4-6 3zm53.8.8c-3.7 1.7-6.8 3.1-6.8 3.2s2 1.3 4.5 2.7 4.5 2.6 4.5 2.7-2.2 1.2-4.9 2.4-9.5 4.3-15.1 6.8l-18.7 8.5c-4.7 2.1-9 4.1-9.5 4.3-9.7 4.4-12.3 5.6-12.7 5.8s-.5 1.4-.5 7.5l-.1 7.3 4.9 2.5 4.9 2.5 6.8-3.1c3.7-1.7 6.8-3.1 6.8-3.3 0-.1-.7-.6-1.5-1s-2.6-1.4-3.9-2.2-2.6-1.4-2.8-1.5c-.3-.1-.5-.3-.5-.4s3-1.5 6.6-3.2c7.1-3.2 12.5-5.6 24.1-10.9 5.2-2.4 10.4-4.7 15.6-7.1 4.6-2.1 9.9-4.5 11.8-5.4l3.5-1.6.1-7.4.1-7.4-5-2.5c-2.7-1.4-5.1-2.5-5.2-2.5-.1.2-3.3 1.6-7 3.3zm15.7 26.6c-.7.4-2.2 1-3.2 1.5s-3 1.3-4.4 2l-2.5 1.1-.1 6.5c0 3.6-.2 6.5-.3 6.4-.3 0-4.9-2.4-9.6-4.9-3.4-1.8-3.6-1.9-4.4-1.5-.5.2-3.2 1.5-6.1 2.7-2.9 1.3-5.3 2.4-5.5 2.5-.1.1 5.7 3.3 12.9 7l13.1 6.8 5.6-2.9c3.1-1.6 5.7-3.1 5.8-3.2.3-.4.2-24.7 0-24.7.1.1-.6.4-1.3.7zm-31.1 28.5c-1 .4-1.9.8-2.9 1.3-2.9 1.3-2.4 1.3-5.9-.4-2.3-1.2-3.3-1.5-3.8-1.3-.3.1-3.1 1.4-6.2 2.8s-5.8 2.6-5.9 2.6c-1.3 0 .9 1.3 9.2 5.5l9.8 4.9 4.1-2c2.3-1.1 6.9-3.4 10.2-5s6-3 6-3c-.1-.1-2.8-1.5-6.2-3.2l-6.1-3.1z" fill="#05a3c9" fill-rule="evenodd"/></svg>