<svg fill="none" height="136" viewBox="0 0 402 136" width="402" xmlns="http://www.w3.org/2000/svg" xmlns:xlink="http://www.w3.org/1999/xlink"><linearGradient id="a" gradientUnits="userSpaceOnUse" x1="47.6209" x2="90.8882" y1="92.8607" y2="44.0817"><stop offset=".08" stop-color="#9945ff"/><stop offset=".3" stop-color="#8752f3"/><stop offset=".5" stop-color="#5497d5"/><stop offset=".6" stop-color="#43b4ca"/><stop offset=".72" stop-color="#28e0b9"/><stop offset=".97" stop-color="#19fb9b"/></linearGradient><mask id="b" height="48" maskUnits="userSpaceOnUse" width="318" x="42" y="44"><path d="m359.644 44.5776h-317.333v47.1579h317.333z" fill="#fff"/></mask><rect fill="#fff" height="136" rx="24" width="401.956"/><g mask="url(#b)"><path d="m95.6237 81.7589-8.7046 9.3333c-.1883.2027-.4163.3645-.6698.4752-.2536.1107-.5272.1681-.8039.1683h-41.2631c-.1968-.0001-.3893-.0576-.554-.1654-.1646-.1079-.2942-.2614-.3729-.4417-.0787-.1804-.1032-.3798-.0703-.5738.0329-.1941.1217-.3744.2554-.5187l8.6947-9.3334c.1883-.2026.4163-.3645.6699-.4752.2535-.1107.5272-.168.8038-.1683h41.2632c.1984-.0041.394.0507.5615.1574s.3001.2605.3802.4422c.0805.1817.1051.3831.0712.5788-.0339.1958-.1248.3772-.2613.5213zm-8.7046-18.7993c-.189-.2018-.4171-.3629-.6705-.4736-.2534-.1106-.5267-.1685-.8032-.1699h-41.2631c-.1968.0001-.3893.0576-.554.1655-.1646.1078-.2942.2613-.3729.4417s-.1032.3797-.0703.5738c.0329.194.1217.3743.2554.5187l8.6947 9.3382c.189.2018.4172.3629.6706.4736.2533.1106.5267.1684.8031.1699h41.2632c.1965-.0011.3881-.0593.5521-.1674.1641-.1083.2928-.2618.3709-.442s.1022-.3792.0688-.5728c-.0329-.1936-.1214-.3734-.255-.5174zm-42.7368-6.7053h41.2631c.2767-.0002.5503-.0576.8039-.1683.2535-.1107.4815-.2725.6698-.4752l8.7046-9.3333c.1365-.1442.2274-.3255.2613-.5213.0339-.1957.0093-.3971-.0712-.5788-.0801-.1817-.2127-.3356-.3802-.4422-.1675-.1067-.3631-.1615-.5615-.1573h-41.2632c-.2766.0002-.5503.0575-.8038.1682-.2536.1108-.4816.2725-.6699.4753l-8.6947 9.3333c-.1337.1443-.2225.3246-.2554.5187-.0329.194-.0084.3934.0703.5738.0787.1803.2083.3338.3729.4417.1647.1078.3572.1653.554.1654z" fill="url(#a)"/><g fill="#0e0d07"><path d="m145.93 64.5219h-22.076v-7.2702h27.814v-7.2701h-27.887c-.953-.0052-1.898.1773-2.78.5372-.882.3598-1.685.8899-2.362 1.56-.678.6701-1.216 1.4671-1.586 2.3453-.369.8783-.562 1.8208-.567 2.7736v7.3684c.004.9536.195 1.8972.564 2.7766s.908 1.6775 1.585 2.3486c.678.6712 1.481 1.2022 2.364 1.5626.882.3605 1.828.5434 2.782.5382h22.105v7.2702h-28.875v7.2701h28.919c.953.0052 1.897-.1774 2.779-.5372.883-.3599 1.686-.8899 2.363-1.56s1.216-1.467 1.585-2.3453c.37-.8784.563-1.8208.568-2.7736v-7.3684c-.004-.9537-.196-1.8972-.565-2.7766s-.907-1.6775-1.584-2.3487c-.678-.6711-1.481-1.202-2.364-1.5625s-1.828-.5434-2.782-.5382z"/><path d="m188.697 49.9812h-22.159c-.955-.0078-1.902.1729-2.786.5316-.884.3586-1.69.8883-2.369 1.5587-.68.6703-1.22 1.4681-1.591 2.3477-.37.8796-.564 1.8237-.569 2.7781v21.9186c.005.9545.199 1.8986.569 2.7782.371.8796.911 1.6774 1.591 2.3477.679.6704 1.485 1.2 2.369 1.5587s1.831.5393 2.786.5316h22.159c.953.0051 1.897-.1774 2.779-.5372.882-.3599 1.686-.89 2.363-1.5601s1.216-1.467 1.585-2.3453c.37-.8783.563-1.8208.568-2.7736v-21.9186c-.005-.9527-.198-1.8952-.568-2.7735-.369-.8783-.908-1.6753-1.585-2.3454-.677-.67-1.481-1.2001-2.363-1.56-.882-.3598-1.826-.5424-2.779-.5372zm-.054 29.0807h-22.051v-21.8105h22.041z"/><path d="m266.311 49.9815h-21.614c-.953-.0052-1.898.1774-2.78.5372-.882.3599-1.685.89-2.362 1.56-.677.6701-1.216 1.4671-1.586 2.3454-.369.8783-.562 1.8207-.567 2.7735v29.1348h7.368v-11.9418h21.516v11.9418h7.368v-29.1348c-.004-.9569-.199-1.9034-.571-2.785-.373-.8815-.916-1.6806-1.599-2.3514-.682-.6707-1.491-1.1998-2.379-1.5567s-1.837-.5346-2.794-.523zm-.054 17.1389h-21.516v-9.8687h21.516z"/><path d="m352.349 49.9816h-21.614c-.953-.0052-1.897.1773-2.779.5372-.882.3598-1.685.8899-2.363 1.56-.677.6701-1.216 1.4671-1.585 2.3453-.37.8783-.563 1.8208-.568 2.7736v29.1347h7.369v-11.9417h21.467v11.9417h7.368v-29.1347c-.005-.9528-.198-1.8953-.567-2.7736-.37-.8782-.909-1.6752-1.586-2.3453-.678-.6701-1.48-1.2002-2.362-1.56-.883-.3599-1.827-.5424-2.78-.5372zm-.073 17.1389h-21.516v-9.8688h21.516z"/><path d="m309.539 79.0622h-2.948l-10.537-26.0351c-.361-.8982-.982-1.668-1.784-2.2106-.801-.5427-1.747-.8334-2.715-.835h-6.539c-.635-.0032-1.265.1187-1.853.3589s-1.123.5939-1.575 1.0409c-.452.4471-.811.9786-1.057 1.5645-.246.5858-.374 1.2143-.378 1.8497v31.5369h7.369v-29.0807h2.947l10.532 26.0351c.367.8965.993 1.6631 1.798 2.2021s1.753.8258 2.721.8238h6.539c.635.0033 1.265-.1186 1.853-.3589.589-.2401 1.123-.5938 1.575-1.0409.452-.447.811-.9786 1.057-1.5644s.374-1.2143.378-1.8498v-31.5172h-7.383z"/><path d="m209.868 49.9814h-7.368v29.1348c.005.9549.199 1.8994.57 2.7793s.912 1.6779 1.591 2.3483c.68.6704 1.486 1.2 2.371 1.5584s1.832.5385 2.787.5301h22.106v-7.2702h-22.057z"/></g></g></svg>